<?xml version="1.0" encoding="UTF-8" standalone="no" ?>
<!DOCTYPE svg PUBLIC "-//W3C//DTD SVG 1.1//EN" "http://www.w3.org/Graphics/SVG/1.1/DTD/svg11.dtd">
<svg xmlns="http://www.w3.org/2000/svg" xmlns:xlink="http://www.w3.org/1999/xlink" version="1.1" width="1080" height="1080" viewBox="0 0 1080 1080" xml:space="preserve">
<desc>Created with Fabric.js 5.2.4</desc>
<defs>
</defs>
<g transform="matrix(1 0 0 1 540 540)" id="146f7992-d888-43d9-8a48-5d9c830b5d7b"  >
<rect style="stroke: none; stroke-width: 1; stroke-dasharray: none; stroke-linecap: butt; stroke-dashoffset: 0; stroke-linejoin: miter; stroke-miterlimit: 4; fill: rgb(255,255,255); fill-rule: nonzero; opacity: 1; visibility: hidden;" vector-effect="non-scaling-stroke"  x="-540" y="-540" rx="0" ry="0" width="1080" height="1080" />
</g>
<g transform="matrix(1 0 0 1 540 540)" id="8d253e79-eae1-4d0f-b352-2eb61750cf03"  >
</g>
<g transform="matrix(5.07 0 0 5.07 540 540)"  >
<path style="stroke: none; stroke-width: 1; stroke-dasharray: none; stroke-linecap: butt; stroke-dashoffset: 0; stroke-linejoin: miter; stroke-miterlimit: 4; fill: rgb(221,81,58); fill-rule: nonzero; opacity: 1;"  transform=" translate(-106.4, -101.97)" d="M 208.365 0.0022802 L 155.165 0.0022802 C 152.717 0.0022802 150.731 1.98839 150.731 4.43612 L 150.731 53.2015 L 212.796 53.2015 L 212.798 4.43232 C 212.798 1.98607 210.812 0 208.364 0 L 208.365 0.0022802 Z M 195.065 39.9023 L 168.465 39.9023 C 166.017 39.9023 164.031 37.9162 164.031 35.4684 C 164.031 33.0207 166.017 31.0346 168.465 31.0346 L 195.065 31.0346 C 197.512 31.0346 199.498 33.0207 199.498 35.4684 C 199.498 37.9162 197.512 39.9023 195.065 39.9023 Z M 195.065 22.1684 L 168.465 22.1684 C 166.017 22.1684 164.031 20.1823 164.031 17.7346 C 164.031 15.2869 166.017 13.3008 168.465 13.3008 L 195.065 13.3008 C 197.512 13.3008 199.498 15.2869 199.498 17.7346 C 199.498 20.1823 197.512 22.1684 195.065 22.1684 Z M 128.565 141.868 L 4.43384 141.868 C 1.98611 141.868 0 143.855 0 146.302 L 0 199.502 C 0 201.95 1.98611 203.936 4.43384 203.936 L 128.568 203.936 C 131.016 203.936 133.002 201.95 133.002 199.502 L 133.001 146.302 C 133.001 143.855 131.015 141.868 128.567 141.868 L 128.565 141.868 Z M 84.2338 150.735 C 86.6816 150.735 88.6677 152.721 88.6677 155.168 C 88.6677 157.616 86.6816 159.602 84.2338 159.602 C 81.7861 159.602 79.8 157.616 79.8 155.168 C 79.8 152.721 81.7861 150.735 84.2338 150.735 Z M 48.7662 150.735 C 51.2139 150.735 53.2 152.721 53.2 155.168 C 53.2 157.616 51.2139 159.602 48.7662 159.602 C 46.3184 159.602 44.3323 157.616 44.3323 155.168 C 44.3338 152.721 46.3199 150.735 48.7662 150.735 Z M 48.7662 168.468 C 51.2139 168.468 53.2 170.455 53.2 172.902 C 53.2 175.35 51.2139 177.336 48.7662 177.336 C 46.3184 177.336 44.3323 175.35 44.3323 172.902 C 44.3338 170.455 46.3199 168.468 48.7662 168.468 Z M 31.0338 150.735 C 33.4816 150.735 35.4677 152.721 35.4677 155.168 C 35.4677 157.616 33.4816 159.602 31.0338 159.602 C 28.5861 159.602 26.6 157.616 26.6 155.168 C 26.6 152.721 28.5861 150.735 31.0338 150.735 Z M 31.0338 168.468 C 33.4816 168.468 35.4677 170.455 35.4677 172.902 C 35.4677 175.35 33.4816 177.336 31.0338 177.336 C 28.5861 177.336 26.6 175.35 26.6 172.902 C 26.6 170.455 28.5861 168.468 31.0338 168.468 Z M 13.3 195.068 C 10.8523 195.068 8.86616 193.082 8.86616 190.635 C 8.86616 188.187 10.8523 186.201 13.3 186.201 C 15.7477 186.201 17.7338 188.187 17.7338 190.635 C 17.7338 193.082 15.7477 195.068 13.3 195.068 Z M 13.3 177.335 C 10.8523 177.335 8.86616 175.349 8.86616 172.901 C 8.86616 170.453 10.8523 168.467 13.3 168.467 C 15.7477 168.467 17.7338 170.453 17.7338 172.901 C 17.7338 175.349 15.7477 177.335 13.3 177.335 Z M 13.3 159.602 C 10.8523 159.602 8.86616 157.616 8.86616 155.168 C 8.86616 152.721 10.8523 150.735 13.3 150.735 C 15.7477 150.735 17.7338 152.721 17.7338 155.168 C 17.7338 157.616 15.7477 159.602 13.3 159.602 Z M 66.5 195.068 L 31.0338 195.068 C 28.5861 195.068 26.6 193.082 26.6 190.635 C 26.6 188.187 28.5861 186.201 31.0338 186.201 L 66.5 186.201 C 68.9477 186.201 70.9339 188.187 70.9339 190.635 C 70.9339 193.082 68.9477 195.068 66.5 195.068 Z M 66.5 177.335 C 64.0523 177.335 62.0662 175.349 62.0662 172.901 C 62.0662 170.453 64.0523 168.467 66.5 168.467 C 68.9477 168.467 70.9339 170.453 70.9339 172.901 C 70.9339 175.349 68.9477 177.335 66.5 177.335 Z M 66.5 159.602 C 64.0523 159.602 62.0662 157.616 62.0662 155.168 C 62.0662 152.721 64.0523 150.735 66.5 150.735 C 68.9477 150.735 70.9339 152.721 70.9339 155.168 C 70.9339 157.616 68.9477 159.602 66.5 159.602 Z M 84.2338 195.068 C 81.7861 195.068 79.8 193.082 79.8 190.635 C 79.8 188.187 81.7861 186.201 84.2338 186.201 C 86.6816 186.201 88.6677 188.187 88.6677 190.635 C 88.6662 193.082 86.6801 195.068 84.2338 195.068 Z M 101.966 195.068 C 99.5184 195.068 97.5323 193.082 97.5323 190.635 C 97.5323 188.187 99.5184 186.201 101.966 186.201 C 104.414 186.201 106.4 188.187 106.4 190.635 C 106.4 193.082 104.414 195.068 101.966 195.068 Z M 101.966 177.335 L 84.2278 177.335 C 81.78 177.335 79.7939 175.349 79.7939 172.901 C 79.7939 170.453 81.78 168.467 84.2278 168.467 L 101.966 168.468 C 104.414 168.468 106.4 170.455 106.4 172.902 C 106.4 175.349 104.414 177.335 101.966 177.335 L 101.966 177.335 Z M 101.966 159.602 C 99.5184 159.602 97.5323 157.616 97.5323 155.168 C 97.5323 152.721 99.5184 150.735 101.966 150.735 C 104.414 150.735 106.4 152.721 106.4 155.168 C 106.4 157.616 104.414 159.602 101.966 159.602 Z M 119.7 195.068 C 117.252 195.068 115.266 193.082 115.266 190.635 C 115.266 188.187 117.252 186.201 119.7 186.201 C 122.148 186.201 124.134 188.187 124.134 190.635 C 124.134 193.082 122.148 195.068 119.7 195.068 Z M 119.7 177.335 C 117.252 177.335 115.266 175.349 115.266 172.901 C 115.266 170.453 117.252 168.467 119.7 168.467 C 122.148 168.467 124.134 170.453 124.134 172.901 C 124.134 175.349 122.148 177.335 119.7 177.335 Z M 119.7 159.602 C 117.252 159.602 115.266 157.616 115.266 155.168 C 115.266 152.721 117.252 150.735 119.7 150.735 C 122.148 150.735 124.134 152.721 124.134 155.168 C 124.134 157.616 122.148 159.602 119.7 159.602 Z M 22.1654 22.1677 L 110.831 22.1677 L 110.831 84.2331 L 22.1654 84.2331 L 22.1654 22.1677 Z M 208.065 168.468 L 186.2 168.468 L 186.2 142.334 C 197.528 144.563 206.421 155.154 208.065 168.468 Z M 128.565 0.0022802 L 4.4346 0.0022802 C 1.98687 0.0022802 0.000759583 1.98839 0.000759583 4.4346 L 0.000759583 101.969 C 0.000759583 104.417 1.98687 106.403 4.4346 106.403 L 53.2 106.403 L 53.2 115.269 L 39.9 115.269 C 37.4523 115.269 35.4662 117.255 35.4662 119.703 C 35.4662 122.151 37.4523 124.137 39.9 124.137 L 93.1 124.137 C 95.5477 124.137 97.5339 122.151 97.5339 119.703 C 97.5339 117.255 95.5477 115.269 93.1 115.269 L 79.8 115.269 L 79.8 106.403 L 128.565 106.403 C 131.013 106.403 132.999 104.417 132.999 101.969 L 132.999 4.4346 C 132.999 1.98835 131.013 0.0022802 128.565 0.0022802 Z M 119.699 88.6677 C 119.699 91.1154 117.713 93.1015 115.265 93.1015 L 17.7346 93.1015 C 15.2869 93.1015 13.3008 91.1154 13.3008 88.6677 L 13.3008 17.7331 C 13.3008 15.2853 15.2869 13.2992 17.7346 13.2992 L 115.269 13.2992 C 117.717 13.2992 119.703 15.2853 119.703 17.7331 L 119.699 88.6677 Z M 177.334 142.335 L 177.334 168.469 L 155.469 168.469 C 157.112 155.156 166.006 144.565 177.334 142.335 Z M 150.734 119.703 C 150.734 122.15 152.72 124.137 155.168 124.137 L 208.368 124.137 C 210.815 124.137 212.802 122.15 212.802 119.703 L 212.8 62.0681 L 150.735 62.0681 L 150.734 119.703 Z M 181.766 79.8027 C 184.214 79.8027 186.2 81.7888 186.2 84.2365 C 186.2 86.6842 184.214 88.6703 181.766 88.6703 C 179.318 88.6703 177.332 86.6842 177.332 84.2365 C 177.334 81.7888 179.32 79.8027 181.766 79.8027 Z M 181.766 97.535 C 184.214 97.535 186.2 99.5211 186.2 101.969 C 186.2 104.417 184.214 106.403 181.766 106.403 C 179.318 106.403 177.332 104.417 177.332 101.969 C 177.334 99.5211 179.32 97.535 181.766 97.535 Z M 155.468 177.335 L 208.059 177.335 C 206.207 192.351 195.136 203.935 181.761 203.935 C 168.387 203.935 157.325 192.351 155.467 177.335 L 155.468 177.335 Z" stroke-linecap="round" />
</g>
</svg>