<?xml version="1.0" encoding="UTF-8" standalone="no" ?>
<!DOCTYPE svg PUBLIC "-//W3C//DTD SVG 1.1//EN" "http://www.w3.org/Graphics/SVG/1.1/DTD/svg11.dtd">
<svg xmlns="http://www.w3.org/2000/svg" xmlns:xlink="http://www.w3.org/1999/xlink" version="1.1" width="1080" height="1080" viewBox="0 0 1080 1080" xml:space="preserve">
<desc>Created with Fabric.js 5.2.4</desc>
<defs>
</defs>
<g transform="matrix(1 0 0 1 540 540)" id="c5175521-a82a-4fbd-aecd-4793c5a1ed5f"  >
<rect style="stroke: none; stroke-width: 1; stroke-dasharray: none; stroke-linecap: butt; stroke-dashoffset: 0; stroke-linejoin: miter; stroke-miterlimit: 4; fill: rgb(255,255,255); fill-rule: nonzero; opacity: 1; visibility: hidden;" vector-effect="non-scaling-stroke"  x="-540" y="-540" rx="0" ry="0" width="1080" height="1080" />
</g>
<g transform="matrix(1 0 0 1 540 540)" id="a002c567-2d7d-4c4a-b904-b8e70656f92c"  >
</g>
<g transform="matrix(6.07 0 0 6.07 540 540)"  >
<path style="stroke: none; stroke-width: 1; stroke-dasharray: none; stroke-linecap: butt; stroke-dashoffset: 0; stroke-linejoin: miter; stroke-miterlimit: 4; fill: rgb(221,81,58); fill-rule: nonzero; opacity: 1;"  transform=" translate(-88.75, -97.73)" d="M 66.6511 44.6772 L 93.1772 44.6772 L 93.1772 71.2034 L 66.6511 71.2034 L 66.6511 44.6772 Z M 22.4396 172.886 L 93.1772 172.886 L 93.1772 164.044 L 22.4396 164.044 L 22.4396 172.886 Z M 22.4396 119.833 L 93.1772 119.833 L 93.1772 110.992 L 22.4396 110.992 L 22.4396 119.833 Z M 97.5956 18.1511 L 97.5956 0.466553 L 11.0068 0.466553 L 28.6914 18.1511 L 97.5956 18.1511 Z M 22.4396 24.4022 L 0.891681 2.85428 C 0.564546 3.47302 0.335086 4.14061 0.335086 4.88815 L 0.335086 80.0442 L 22.4397 80.0442 L 22.4396 24.4022 Z M 40.1287 42.0868 L 31.2872 33.2452 L 31.2857 80.0449 L 40.1272 80.0449 L 40.1287 42.0868 Z M 128.544 137.52 L 155.07 137.52 L 155.07 110.994 L 128.544 110.994 L 128.544 137.52 Z M 177.174 4.88959 L 177.174 190.572 C 177.174 193.013 175.193 194.994 172.752 194.994 L 4.75502 194.994 C 2.31409 194.994 0.333496 193.013 0.333496 190.572 L 0.334976 88.8902 L 44.5464 88.8902 C 46.9874 88.8902 48.9679 86.9096 48.9679 84.4687 L 48.9665 40.2572 C 48.9665 39.0864 48.5017 37.9584 47.6712 37.1309 L 37.533 26.9942 L 102.018 26.9942 C 104.459 26.9942 106.439 25.0136 106.439 22.5727 L 106.439 0.468068 L 172.755 0.468068 C 175.194 0.468068 177.175 2.44866 177.175 4.88959 L 177.174 4.88959 Z M 102.018 159.624 C 102.018 157.183 100.037 155.202 97.5964 155.202 L 18.0181 155.204 C 15.5771 155.204 13.5966 157.185 13.5966 159.625 L 13.5966 177.31 C 13.5966 179.751 15.5771 181.732 18.0181 181.732 L 97.5964 181.732 C 100.037 181.732 102.018 179.751 102.018 177.31 L 102.018 159.624 Z M 102.018 141.941 C 102.018 139.5 100.037 137.519 97.5964 137.519 L 18.0181 137.519 C 15.5771 137.519 13.5966 139.5 13.5966 141.941 C 13.5966 144.382 15.5771 146.362 18.0181 146.362 L 97.5964 146.362 C 100.037 146.361 102.018 144.38 102.018 141.941 Z M 102.018 106.572 C 102.018 104.131 100.037 102.15 97.5964 102.15 L 18.0181 102.152 C 15.5771 102.152 13.5966 104.132 13.5966 106.573 L 13.5966 124.258 C 13.5966 126.699 15.5771 128.679 18.0181 128.679 L 97.5964 128.679 C 100.037 128.679 102.018 126.699 102.018 124.258 L 102.018 106.572 Z M 102.018 40.2565 C 102.018 37.8155 100.037 35.835 97.5964 35.835 L 62.2288 35.835 C 59.7878 35.835 57.8072 37.8155 57.8072 40.2565 L 57.8072 75.6241 C 57.8072 78.0651 59.7878 80.0456 62.2288 80.0456 L 97.5964 80.0456 C 100.037 80.0456 102.018 78.0651 102.018 75.6241 L 102.018 40.2565 Z M 141.807 88.8902 C 141.807 91.3311 143.788 93.3117 146.229 93.3117 C 148.67 93.3117 150.65 91.3311 150.65 88.8902 L 150.649 22.5749 C 150.649 20.134 148.668 18.1534 146.227 18.1534 C 143.786 18.1534 141.806 20.134 141.806 22.5749 L 141.807 88.8902 Z M 128.544 88.8902 C 128.544 91.3311 130.525 93.3117 132.966 93.3117 C 135.407 93.3117 137.387 91.3311 137.387 88.8902 L 137.386 22.5749 C 137.386 20.134 135.405 18.1534 132.964 18.1534 C 130.523 18.1534 128.543 20.134 128.543 22.5749 L 128.544 88.8902 Z M 119.703 93.3102 C 122.143 93.3102 124.124 91.3296 124.124 88.8887 L 124.123 22.5734 C 124.123 20.1325 122.142 18.1519 119.701 18.1519 C 117.26 18.1519 115.28 20.1325 115.28 22.5734 L 115.28 88.8887 C 115.281 91.3282 117.262 93.3087 119.703 93.3087 L 119.703 93.3102 Z M 137.386 177.311 C 137.386 174.87 135.405 172.889 132.964 172.889 L 124.123 172.889 C 121.682 172.889 119.701 174.87 119.701 177.311 C 119.701 179.752 121.682 181.732 124.123 181.732 L 132.964 181.732 C 135.405 181.732 137.386 179.752 137.386 177.311 Z M 128.544 164.048 C 130.985 164.048 132.966 162.067 132.966 159.626 C 132.966 157.185 130.985 155.205 128.544 155.205 C 126.103 155.205 124.123 157.185 124.123 159.626 C 124.123 162.067 126.103 164.048 128.544 164.048 Z M 146.229 159.626 C 146.229 157.185 144.248 155.205 141.807 155.205 C 139.366 155.205 137.386 157.185 137.386 159.626 C 137.386 162.067 139.366 164.048 141.807 164.048 C 144.248 164.048 146.229 162.067 146.229 159.626 Z M 163.912 177.311 C 163.912 174.87 161.931 172.889 159.49 172.889 L 150.649 172.889 C 148.208 172.889 146.227 174.87 146.227 177.311 C 146.227 179.752 148.208 181.732 150.649 181.732 L 159.49 181.732 C 161.931 181.732 163.912 179.752 163.912 177.311 Z M 155.07 164.048 C 157.511 164.048 159.492 162.067 159.492 159.626 C 159.492 157.185 157.511 155.205 155.07 155.205 C 152.629 155.205 150.649 157.185 150.649 159.626 C 150.649 162.067 152.629 164.048 155.07 164.048 Z M 163.912 106.573 C 163.912 104.132 161.931 102.152 159.49 102.152 L 124.123 102.152 C 121.682 102.152 119.701 104.132 119.701 106.573 L 119.701 141.941 C 119.701 144.382 121.682 146.362 124.123 146.362 L 159.49 146.362 C 161.931 146.362 163.912 144.382 163.912 141.941 L 163.912 106.573 Z M 163.912 22.5764 C 163.912 20.1355 161.931 18.1549 159.49 18.1549 C 157.049 18.1549 155.069 20.1355 155.069 22.5764 L 155.069 88.8917 C 155.069 91.3327 157.049 93.3133 159.49 93.3133 C 161.931 93.3133 163.912 91.3327 163.912 88.8917 L 163.912 22.5764 Z" stroke-linecap="round" />
</g>
</svg>