<?xml version="1.0" encoding="UTF-8" standalone="no" ?>
<!DOCTYPE svg PUBLIC "-//W3C//DTD SVG 1.1//EN" "http://www.w3.org/Graphics/SVG/1.1/DTD/svg11.dtd">
<svg xmlns="http://www.w3.org/2000/svg" xmlns:xlink="http://www.w3.org/1999/xlink" version="1.1" width="1080" height="1080" viewBox="0 0 1080 1080" xml:space="preserve">
<desc>Created with Fabric.js 5.2.4</desc>
<defs>
</defs>
<g transform="matrix(1 0 0 1 540 540)" id="844c21b7-0a32-45bb-b885-bec8987baea3"  >
<rect style="stroke: none; stroke-width: 1; stroke-dasharray: none; stroke-linecap: butt; stroke-dashoffset: 0; stroke-linejoin: miter; stroke-miterlimit: 4; fill: rgb(255,255,255); fill-rule: nonzero; opacity: 1; visibility: hidden;" vector-effect="non-scaling-stroke"  x="-540" y="-540" rx="0" ry="0" width="1080" height="1080" />
</g>
<g transform="matrix(1 0 0 1 540 540)" id="0c11ff50-7025-4180-9b78-8fd9757036dc"  >
</g>
<g transform="matrix(5.78 0 0 5.78 540 540)"  >
<path style="stroke: none; stroke-width: 1; stroke-dasharray: none; stroke-linecap: butt; stroke-dashoffset: 0; stroke-linejoin: miter; stroke-miterlimit: 4; fill: rgb(221,81,58); fill-rule: nonzero; opacity: 1;"  transform=" translate(-93.74, -93.1)" d="M 142.506 57.6339 L 142.506 128.568 C 142.506 135.901 136.539 141.868 129.206 141.868 L 58.2755 141.867 C 50.9426 141.867 44.9755 135.9 44.9755 128.567 L 44.9755 57.6362 C 44.9755 50.3033 50.9426 44.3362 58.2755 44.3362 L 129.21 44.3362 C 136.541 44.3362 142.509 50.3033 142.509 57.6362 L 142.506 57.6339 Z M 169.106 70.9339 L 169.106 88.6677 L 182.406 88.6677 C 184.858 88.6677 186.84 90.6538 186.84 93.1016 C 186.84 95.5493 184.859 97.5354 182.406 97.5354 L 169.106 97.5354 L 169.106 115.269 L 182.406 115.269 C 184.858 115.269 186.84 117.255 186.84 119.703 C 186.84 122.151 184.859 124.137 182.406 124.137 L 169.106 124.137 L 169.106 141.871 L 182.406 141.871 C 184.858 141.871 186.84 143.857 186.84 146.305 C 186.84 148.752 184.859 150.738 182.406 150.738 L 169.106 150.738 L 169.106 164.038 C 169.106 166.486 167.125 168.472 164.672 168.472 L 151.372 168.472 L 151.372 181.772 C 151.372 184.22 149.391 186.206 146.939 186.206 C 144.486 186.206 142.505 184.22 142.505 181.772 L 142.505 168.472 L 124.771 168.472 L 124.771 181.772 C 124.771 184.22 122.789 186.206 120.337 186.206 C 117.885 186.206 115.903 184.22 115.903 181.772 L 115.903 168.472 L 98.1694 168.472 L 98.1694 181.772 C 98.1694 184.22 96.1878 186.206 93.7356 186.206 C 91.2834 186.206 89.3017 184.22 89.3017 181.772 L 89.3017 168.472 L 71.5679 168.472 L 71.5679 181.772 C 71.5679 184.22 69.5863 186.206 67.1341 186.206 C 64.6818 186.206 62.7002 184.22 62.7002 181.772 L 62.7002 168.472 L 44.9664 168.472 L 44.9664 181.772 C 44.9664 184.22 42.9847 186.206 40.5325 186.206 C 38.0803 186.206 36.0987 184.22 36.0987 181.772 L 36.0987 168.472 L 22.8063 168.466 C 20.3541 168.466 18.3725 166.48 18.3725 164.032 L 18.3725 150.732 L 5.07398 150.734 C 2.6218 150.734 0.640137 148.748 0.640137 146.3 C 0.640137 143.852 2.62176 141.866 5.07398 141.866 L 18.374 141.866 L 18.374 124.132 L 5.07398 124.134 C 2.6218 124.134 0.640137 122.148 0.640137 119.7 C 0.640137 117.252 2.62176 115.266 5.07398 115.266 L 18.374 115.266 L 18.374 97.5324 L 5.07398 97.5339 C 2.6218 97.5339 0.640137 95.5478 0.640137 93.1001 C 0.640137 90.6523 2.62176 88.6662 5.07398 88.6662 L 18.374 88.6662 L 18.374 70.9324 L 5.07398 70.9339 C 2.6218 70.9339 0.640137 68.9478 0.640137 66.5 C 0.640137 64.0523 2.62176 62.0662 5.07398 62.0662 L 18.374 62.0662 L 18.374 44.3324 L 5.07398 44.3338 C 2.6218 44.3338 0.640137 42.3477 0.640137 39.9 C 0.640137 37.4523 2.62176 35.4662 5.07398 35.4662 L 18.374 35.4662 L 18.374 22.1662 C 18.374 19.7184 20.3556 17.7323 22.8078 17.7323 L 36.1078 17.7323 L 36.1063 4.43384 C 36.1063 1.98611 38.088 0 40.5402 0 C 42.9924 0 44.974 1.98611 44.974 4.43384 L 44.974 17.7338 L 62.7079 17.7338 L 62.7064 4.43384 C 62.7064 1.98611 64.688 0 67.1402 0 C 69.5924 0 71.5741 1.98611 71.5741 4.43384 L 71.5741 17.7338 L 89.3079 17.7338 L 89.3064 4.43384 C 89.3064 1.98611 91.288 0 93.7402 0 C 96.1925 0 98.1741 1.98611 98.1741 4.43384 L 98.1741 17.7338 L 115.908 17.7338 L 115.906 4.43384 C 115.906 1.98611 117.888 0 120.34 0 C 122.792 0 124.774 1.98611 124.774 4.43384 L 124.774 17.7338 L 142.508 17.7338 L 142.506 4.43384 C 142.506 1.98611 144.488 0 146.94 0 C 149.393 0 151.374 1.98611 151.374 4.43384 L 151.374 17.7338 L 164.674 17.7338 C 167.126 17.7338 169.108 19.7199 169.108 22.1677 L 169.108 35.4677 L 182.408 35.4677 C 184.86 35.4677 186.842 37.4538 186.842 39.9015 C 186.842 42.3493 184.86 44.3354 182.408 44.3354 L 169.108 44.3354 L 169.108 62.0692 L 182.408 62.0692 C 184.86 62.0692 186.842 64.0553 186.842 66.503 C 186.842 68.9508 184.86 70.9369 182.408 70.9369 L 169.106 70.9339 Z M 151.374 57.6339 C 151.374 45.4116 141.43 35.4677 129.208 35.4677 L 58.2732 35.4662 C 46.0509 35.4662 36.1071 45.4101 36.1071 57.6324 L 36.1071 128.567 C 36.1071 140.789 46.0509 150.733 58.2732 150.733 L 129.208 150.733 C 141.43 150.733 151.374 140.789 151.374 128.567 L 151.374 57.6339 Z" stroke-linecap="round" />
</g>
</svg>