<?xml version="1.0" encoding="UTF-8" standalone="no" ?>
<!DOCTYPE svg PUBLIC "-//W3C//DTD SVG 1.1//EN" "http://www.w3.org/Graphics/SVG/1.1/DTD/svg11.dtd">
<svg xmlns="http://www.w3.org/2000/svg" xmlns:xlink="http://www.w3.org/1999/xlink" version="1.1" width="1080" height="1080" viewBox="0 0 1080 1080" xml:space="preserve">
<desc>Created with Fabric.js 5.2.4</desc>
<defs>
</defs>
<g transform="matrix(1 0 0 1 540 540)" id="28139791-babc-4d9f-b536-c7f0f7d1d238"  >
<rect style="stroke: none; stroke-width: 1; stroke-dasharray: none; stroke-linecap: butt; stroke-dashoffset: 0; stroke-linejoin: miter; stroke-miterlimit: 4; fill: rgb(255,255,255); fill-rule: nonzero; opacity: 1; visibility: hidden;" vector-effect="non-scaling-stroke"  x="-540" y="-540" rx="0" ry="0" width="1080" height="1080" />
</g>
<g transform="matrix(1 0 0 1 540 540)" id="4ab13143-62bf-4a30-afc8-35026fdc2de6"  >
</g>
<g transform="matrix(5.29 0 0 5.29 540 540)"  >
<path style="stroke: none; stroke-width: 1; stroke-dasharray: none; stroke-linecap: butt; stroke-dashoffset: 0; stroke-linejoin: miter; stroke-miterlimit: 4; fill: rgb(221,81,58); fill-rule: nonzero; opacity: 1;"  transform=" translate(-101.97, -101.97)" d="M 97.5351 168.468 C 97.5351 166.025 99.5212 164.035 101.969 164.035 C 104.417 164.035 106.403 166.025 106.403 168.468 C 106.403 170.912 104.417 172.902 101.969 172.902 C 99.5212 172.902 97.5351 170.912 97.5351 168.468 Z M 101.969 137.435 C 104.417 137.435 106.403 135.444 106.403 133.001 C 106.403 130.557 104.417 128.567 101.969 128.567 C 99.5212 128.567 97.5351 130.557 97.5351 133.001 C 97.5351 135.444 99.5212 137.435 101.969 137.435 Z M 20.8732 1.2958 C 20.266 0.693158 19.1973 0.00144415 17.7337 0.00144415 C 16.2716 0.00144415 15.2028 0.697604 14.5958 1.30473 L 1.30031 14.6002 C -0.433438 16.3339 -0.433438 19.1351 1.30031 20.8687 C 3.03406 22.6022 5.83523 22.6024 7.56879 20.8687 L 13.3015 15.136 L 13.3015 115.274 C 13.3015 117.726 15.2831 119.703 17.7338 119.703 C 20.186 119.703 22.1676 117.717 22.1676 115.269 L 22.1676 15.1314 L 27.9049 20.8687 C 29.6386 22.6024 32.4398 22.6024 34.1734 20.8687 C 35.9069 19.1349 35.9071 16.3337 34.1734 14.6002 L 20.8732 1.2958 Z M 202.639 14.5958 L 189.339 1.2958 C 188.731 0.693158 187.663 0.00144415 186.201 0.00144415 C 184.737 0.00144415 183.67 0.697604 183.061 1.30473 L 169.766 14.6002 C 168.032 16.3339 168.032 19.1351 169.766 20.8687 C 171.499 22.6022 174.301 22.6024 176.034 20.8687 L 181.767 15.136 L 181.767 115.274 C 181.767 117.726 183.749 119.703 186.201 119.703 C 188.653 119.703 190.635 117.717 190.635 115.269 L 190.635 15.1314 L 196.372 20.8687 C 198.106 22.6024 200.907 22.6024 202.64 20.8687 C 204.373 19.1349 204.368 16.3296 202.639 14.5956 L 202.639 14.5958 Z M 155.165 4.43384 L 155.165 88.6684 L 48.7652 88.6684 L 48.7652 4.43384 C 48.7652 1.98611 50.7468 0 53.199 0 L 150.734 0 C 153.184 0.00148466 155.166 1.98759 155.166 4.43384 L 155.165 4.43384 Z M 137.431 53.203 C 137.431 50.7553 135.45 48.7692 132.997 48.7692 L 70.9321 48.7692 C 68.4799 48.7692 66.4982 50.7553 66.4982 53.203 L 66.4982 70.9369 C 66.4982 73.3846 68.4799 75.3707 70.9321 75.3707 L 132.997 75.3707 C 135.45 75.3707 137.431 73.3846 137.431 70.9369 L 137.431 53.203 Z M 137.431 17.7354 C 137.431 15.2876 135.45 13.3015 132.997 13.3015 L 70.9321 13.303 C 68.4799 13.303 66.4982 15.2891 66.4982 17.7368 L 66.4982 35.4707 C 66.4982 37.9184 68.4799 39.9045 70.9321 39.9045 L 132.997 39.9045 C 135.45 39.9045 137.431 37.9184 137.431 35.4707 L 137.431 17.7354 Z M 75.3659 66.5046 L 128.566 66.5046 L 128.566 57.6384 L 75.3659 57.6369 L 75.3659 66.5046 Z M 48.7659 97.5369 L 155.166 97.5369 L 155.166 199.502 C 155.166 201.95 153.184 203.936 150.732 203.936 L 53.2013 203.936 C 50.7491 203.936 48.7675 201.95 48.7675 199.502 L 48.7659 97.5369 Z M 88.6659 133.005 C 88.6659 140.337 94.6331 146.305 101.966 146.305 C 109.299 146.305 115.266 140.337 115.266 133.005 C 115.266 125.672 109.299 119.705 101.966 119.705 C 94.6331 119.705 88.6659 125.672 88.6659 133.005 Z M 88.6659 168.471 C 88.6659 175.804 94.6331 181.771 101.966 181.771 C 109.299 181.771 115.266 175.804 115.266 168.471 C 115.266 161.138 109.299 155.171 101.966 155.171 C 94.6331 155.171 88.6659 161.138 88.6659 168.471 Z M 75.3659 31.0361 L 128.566 31.0361 L 128.566 22.17 L 75.3659 22.17 L 75.3659 31.0361 Z" stroke-linecap="round" />
</g>
</svg>