<?xml version="1.0" encoding="UTF-8"?>
<svg xmlns="http://www.w3.org/2000/svg" xmlns:xlink="http://www.w3.org/1999/xlink" viewBox="0 0 50 50" width="50px" height="50px">
<g id="surface7385341">
<path style=" stroke:none;fill-rule:nonzero;fill:rgb(100%,100%,100%);fill-opacity:1;" d="M 46.894531 23.984375 C 46.898438 23.984375 46.902344 23.984375 46.90625 23.984375 C 47.183594 23.984375 47.449219 23.867188 47.640625 23.664062 C 47.832031 23.457031 47.925781 23.175781 47.902344 22.894531 C 46.898438 11.851562 38.152344 3.105469 27.109375 2.101562 C 26.828125 2.078125 26.546875 2.167969 26.339844 2.363281 C 26.132812 2.554688 26.015625 2.824219 26.019531 3.109375 C 26.191406 17.785156 28.128906 23.78125 46.894531 23.984375 Z M 46.894531 26.015625 C 28.128906 26.21875 26.195312 32.214844 26.019531 46.890625 C 26.015625 47.175781 26.132812 47.445312 26.339844 47.636719 C 26.527344 47.808594 26.769531 47.902344 27.019531 47.902344 C 27.050781 47.902344 27.082031 47.902344 27.109375 47.898438 C 38.15625 46.894531 46.898438 38.148438 47.902344 27.105469 C 47.925781 26.824219 47.832031 26.542969 47.640625 26.335938 C 47.445312 26.128906 47.175781 26.023438 46.894531 26.015625 Z M 22.824219 2.105469 C 11.8125 3.140625 3.097656 11.882812 2.101562 22.898438 C 2.074219 23.179688 2.167969 23.457031 2.363281 23.664062 C 2.550781 23.871094 2.816406 23.988281 3.097656 23.988281 C 3.101562 23.988281 3.105469 23.988281 3.109375 23.988281 C 21.8125 23.773438 23.742188 17.777344 23.917969 3.113281 C 23.921875 2.828125 23.804688 2.558594 23.597656 2.363281 C 23.386719 2.171875 23.105469 2.078125 22.824219 2.105469 Z M 3.105469 26.011719 C 2.796875 25.976562 2.550781 26.125 2.359375 26.335938 C 2.167969 26.542969 2.074219 26.820312 2.097656 27.101562 C 3.097656 38.117188 11.8125 46.859375 22.824219 47.894531 C 22.855469 47.898438 22.886719 47.898438 22.917969 47.898438 C 23.167969 47.898438 23.410156 47.804688 23.59375 47.632812 C 23.804688 47.441406 23.921875 47.171875 23.917969 46.886719 C 23.742188 32.222656 21.8125 26.226562 3.105469 26.011719 Z M 3.105469 26.011719 "/>
</g>
</svg>
